<svg xmlns="http://www.w3.org/2000/svg" viewBox="0 0 720 520" role="img" aria-label="Ninja Mobile">
  <defs>
    <linearGradient id="g" x1="0" x2="1" y1="0" y2="1">
      <stop stop-color="#f97316"/>
      <stop offset="1" stop-color="#16a34a"/>
    </linearGradient>
  </defs>
  <rect width="720" height="520" rx="32" fill="#fff7ed"/>
  <circle cx="560" cy="120" r="88" fill="#fed7aa"/>
  <path d="M84 396c100-122 194-182 282-180 86 2 178 64 276 180H84Z" fill="#bbf7d0"/>
  <path d="M118 398h494" stroke="#14532d" stroke-width="12" stroke-linecap="round"/>
  <g transform="translate(260 120)">
    <circle cx="100" cy="96" r="72" fill="#111827"/>
    <path d="M32 96h136c-12 36-34 54-68 54s-56-18-68-54Z" fill="#f9fafb"/>
    <circle cx="76" cy="98" r="10" fill="#111827"/>
    <circle cx="124" cy="98" r="10" fill="#111827"/>
    <path d="M54 50 22 22m124 28 32-28" stroke="url(#g)" stroke-width="16" stroke-linecap="round"/>
    <path d="M100 168v88m-50-42h100" stroke="#111827" stroke-width="22" stroke-linecap="round"/>
    <path d="M40 256h120" stroke="url(#g)" stroke-width="18" stroke-linecap="round"/>
  </g>
  <text x="48" y="78" font-family="Arial, sans-serif" font-size="34" font-weight="700" fill="#7c2d12">Ninja Mobile</text>
</svg>
