<svg xmlns="http://www.w3.org/2000/svg" viewBox="0 0 24 24" fill="none" stroke="currentColor" stroke-width="1.8" stroke-linecap="round" stroke-linejoin="round">
  <path d="M12 5.25v2.25" />
  <path d="M8.25 7.25 6.5 5.75" />
  <path d="m15.75 7.25 1.75-1.5" />
  <path d="M7 10.25 4.75 9.5" />
  <path d="m17 10.25 2.25-.75" />
  <path d="M7 14.25l-2.25.75" />
  <path d="m17 14.25 2.25.75" />
  <path d="M9.25 8.5h5.5A2.25 2.25 0 0 1 17 10.75v3.5A4.75 4.75 0 0 1 12.25 19h-.5A4.75 4.75 0 0 1 7 14.25v-3.5A2.25 2.25 0 0 1 9.25 8.5Z" />
  <path d="M9.5 12h5" />
</svg>
