<svg xmlns="http://www.w3.org/2000/svg" viewBox="0 0 24 24" fill="none" stroke="#ffffff" stroke-width="1.8" stroke-linecap="round" stroke-linejoin="round">
  <path d="M7 16.5H4.75A1.75 1.75 0 0 1 3 14.75v-8.5C3 5.283 3.783 4.5 4.75 4.5h8.5c.967 0 1.75.783 1.75 1.75V8" />
  <path d="M7 9h4.5" />
  <path d="M7 12h2.5" />
  <path d="M10.75 10.75c0-.967.783-1.75 1.75-1.75h6.75c.967 0 1.75.783 1.75 1.75v4.5c0 .967-.783 1.75-1.75 1.75H16.5L13 20v-2.75h-.5a1.75 1.75 0 0 1-1.75-1.75v-4.75Z" />
  <path d="M14.75 13.125h4.5" />
</svg>
